<mxfile host="65bd71144e">
    <diagram id="7M1j6jTD5WMNC7OYtBL2" name="Page-1">
        <mxGraphModel dx="781" dy="453" grid="1" gridSize="10" guides="1" tooltips="1" connect="1" arrows="1" fold="1" page="1" pageScale="1" pageWidth="850" pageHeight="1100" math="0" shadow="0">
            <root>
                <mxCell id="0"/>
                <mxCell id="1" parent="0"/>
                <mxCell id="359" value="&lt;b style=&quot;font-size: 14px;&quot;&gt;&lt;u&gt;Id&lt;/u&gt;&lt;/b&gt;" style="rounded=1;whiteSpace=wrap;html=1;absoluteArcSize=1;arcSize=14;strokeWidth=2;align=center;fillColor=#0050ef;fontColor=#ffffff;strokeColor=#001DBC;" vertex="1" parent="1">
                    <mxGeometry x="393.18" y="959" width="147" height="33" as="geometry"/>
                </mxCell>
                <mxCell id="358" value="&lt;b style=&quot;font-size: 14px;&quot;&gt;&lt;u&gt;Id&lt;/u&gt;&lt;/b&gt;" style="rounded=1;whiteSpace=wrap;html=1;absoluteArcSize=1;arcSize=14;strokeWidth=2;align=center;fillColor=#0050ef;fontColor=#ffffff;strokeColor=#001DBC;" vertex="1" parent="1">
                    <mxGeometry x="217.25" y="958" width="147" height="33" as="geometry"/>
                </mxCell>
                <mxCell id="357" value="&lt;b style=&quot;font-size: 14px;&quot;&gt;&lt;u&gt;Id&lt;/u&gt;&lt;/b&gt;" style="rounded=1;whiteSpace=wrap;html=1;absoluteArcSize=1;arcSize=14;strokeWidth=2;align=center;fillColor=#0050ef;fontColor=#ffffff;strokeColor=#001DBC;" vertex="1" parent="1">
                    <mxGeometry x="55" y="958" width="147" height="33" as="geometry"/>
                </mxCell>
                <mxCell id="352" value="" style="rounded=1;html=1;absoluteArcSize=1;arcSize=22;strokeWidth=2;align=center;fillColor=#1ba1e2;fontColor=#ffffff;strokeColor=#006EAF;" parent="1" vertex="1">
                    <mxGeometry x="57" y="557" width="46" height="36" as="geometry"/>
                </mxCell>
                <mxCell id="269" value="&lt;span style=&quot;font-size: 14px;&quot;&gt;&lt;b&gt;&lt;u&gt;Id&lt;/u&gt;&lt;/b&gt;&lt;/span&gt;" style="rounded=1;html=1;absoluteArcSize=1;arcSize=14;strokeWidth=2;align=center;fillColor=#0050ef;fontColor=#ffffff;strokeColor=#001DBC;" parent="1" vertex="1">
                    <mxGeometry x="57.5" y="80" width="40" height="30" as="geometry"/>
                </mxCell>
                <mxCell id="270" value="&lt;font style=&quot;font-size: 24px;&quot;&gt;Categry&lt;/font&gt;" style="text;html=1;align=center;verticalAlign=middle;resizable=0;points=[];autosize=1;strokeColor=none;fillColor=none;labelBackgroundColor=none;" parent="1" vertex="1">
                    <mxGeometry x="57.5" y="40" width="110" height="40" as="geometry"/>
                </mxCell>
                <mxCell id="273" value="&lt;span style=&quot;font-size: 24px;&quot;&gt;SubCategry&lt;/span&gt;" style="text;html=1;align=center;verticalAlign=middle;resizable=0;points=[];autosize=1;strokeColor=none;fillColor=none;" parent="1" vertex="1">
                    <mxGeometry x="60" y="120" width="150" height="40" as="geometry"/>
                </mxCell>
                <mxCell id="274" value="&lt;span style=&quot;background-color: rgb(31, 31, 31); color: rgb(204, 204, 204); font-family: Consolas, &amp;quot;Courier New&amp;quot;, monospace; font-size: 14px;&quot;&gt;Name_Local&lt;/span&gt;&lt;span style=&quot;background-color: initial;&quot;&gt;,&lt;/span&gt;&lt;span style=&quot;background-color: rgb(31, 31, 31); color: rgb(204, 204, 204); font-family: Consolas, &amp;quot;Courier New&amp;quot;, monospace; font-size: 14px;&quot;&gt;Name_Global&lt;/span&gt;" style="rounded=1;absoluteArcSize=1;arcSize=14;strokeWidth=2;align=left;whiteSpace=wrap;html=1;glass=0;shadow=0;" parent="1" vertex="1">
                    <mxGeometry x="99" y="80" width="190" height="30" as="geometry"/>
                </mxCell>
                <mxCell id="276" value="&lt;span style=&quot;font-size: 24px;&quot;&gt;Product&lt;/span&gt;" style="text;html=1;align=center;verticalAlign=middle;resizable=0;points=[];autosize=1;strokeColor=none;fillColor=none;" parent="1" vertex="1">
                    <mxGeometry x="60" y="200" width="110" height="40" as="geometry"/>
                </mxCell>
                <mxCell id="277" value="&lt;b style=&quot;font-size: 14px;&quot;&gt;&lt;u&gt;Id&lt;/u&gt;&lt;/b&gt;" style="rounded=1;whiteSpace=wrap;html=1;absoluteArcSize=1;arcSize=14;strokeWidth=2;align=center;fillColor=#0050ef;fontColor=#ffffff;strokeColor=#001DBC;" parent="1" vertex="1">
                    <mxGeometry x="60" y="160" width="40" height="30" as="geometry"/>
                </mxCell>
                <mxCell id="279" value="&lt;b style=&quot;font-size: 14px;&quot;&gt;&lt;u&gt;Id&lt;/u&gt;&lt;/b&gt;" style="rounded=1;whiteSpace=wrap;html=1;absoluteArcSize=1;arcSize=14;strokeWidth=2;align=center;fillColor=#0050ef;fontColor=#ffffff;strokeColor=#001DBC;" parent="1" vertex="1">
                    <mxGeometry x="60" y="240" width="40" height="30" as="geometry"/>
                </mxCell>
                <mxCell id="280" value="&lt;span style=&quot;text-align: left; background-color: rgb(31, 31, 31); color: rgb(204, 204, 204); font-family: Consolas, &amp;quot;Courier New&amp;quot;, monospace; font-size: 14px;&quot;&gt;Name_Local&lt;/span&gt;&lt;span style=&quot;text-align: left; background-color: initial;&quot;&gt;,&lt;/span&gt;&lt;span style=&quot;text-align: left; background-color: rgb(31, 31, 31); color: rgb(204, 204, 204); font-family: Consolas, &amp;quot;Courier New&amp;quot;, monospace; font-size: 14px;&quot;&gt;Name_Global&lt;/span&gt;&lt;span style=&quot;font-size: 14px;&quot;&gt;,&amp;nbsp;&lt;/span&gt;&lt;span style=&quot;background-color: rgb(31, 31, 31); color: rgb(204, 204, 204); font-family: Consolas, &amp;quot;Courier New&amp;quot;, monospace; font-size: 14px;&quot;&gt;Description_Local,&lt;/span&gt;&lt;span style=&quot;background-color: rgb(31, 31, 31); color: rgb(204, 204, 204); font-family: Consolas, &amp;quot;Courier New&amp;quot;, monospace; font-size: 14px;&quot;&gt;Description_Global&lt;/span&gt;" style="rounded=1;whiteSpace=wrap;html=1;absoluteArcSize=1;arcSize=14;strokeWidth=2;align=center;" parent="1" vertex="1">
                    <mxGeometry x="190" y="240" width="470" height="30" as="geometry"/>
                </mxCell>
                <mxCell id="282" value="&lt;span style=&quot;font-size: 24px;&quot;&gt;PriceHistory&lt;/span&gt;" style="text;html=1;align=center;verticalAlign=middle;resizable=0;points=[];autosize=1;strokeColor=none;fillColor=none;" parent="1" vertex="1">
                    <mxGeometry x="57.5" y="280" width="150" height="40" as="geometry"/>
                </mxCell>
                <mxCell id="284" value="&lt;span style=&quot;font-size: 14px;&quot;&gt;Price,Date&lt;/span&gt;" style="rounded=1;whiteSpace=wrap;html=1;absoluteArcSize=1;arcSize=14;strokeWidth=2;align=center;" parent="1" vertex="1">
                    <mxGeometry x="170" y="320" width="90" height="30" as="geometry"/>
                </mxCell>
                <mxCell id="285" value="&lt;span style=&quot;font-size: 14px;&quot;&gt;Prod_Id&lt;/span&gt;" style="rounded=1;html=1;absoluteArcSize=1;arcSize=14;strokeWidth=2;align=center;fillColor=#1ba1e2;fontColor=#ffffff;strokeColor=#006EAF;" parent="1" vertex="1">
                    <mxGeometry x="100" y="320" width="70" height="30" as="geometry"/>
                </mxCell>
                <mxCell id="286" value="&lt;span style=&quot;font-size: 24px;&quot;&gt;Domain&lt;/span&gt;" style="text;html=1;align=center;verticalAlign=middle;resizable=0;points=[];autosize=1;strokeColor=none;fillColor=none;" parent="1" vertex="1">
                    <mxGeometry x="57.5" y="360" width="110" height="40" as="geometry"/>
                </mxCell>
                <mxCell id="287" value="&lt;b style=&quot;font-size: 14px;&quot;&gt;&lt;u&gt;Id&lt;/u&gt;&lt;/b&gt;" style="rounded=1;whiteSpace=wrap;html=1;absoluteArcSize=1;arcSize=14;strokeWidth=2;align=center;fillColor=#0050ef;fontColor=#ffffff;strokeColor=#001DBC;" parent="1" vertex="1">
                    <mxGeometry x="57.5" y="400" width="40" height="30" as="geometry"/>
                </mxCell>
                <mxCell id="288" value="&lt;span style=&quot;text-align: left; background-color: rgb(31, 31, 31); color: rgb(204, 204, 204); font-family: Consolas, &amp;quot;Courier New&amp;quot;, monospace; font-size: 14px;&quot;&gt;Name_Local&lt;/span&gt;&lt;span style=&quot;text-align: left; background-color: initial;&quot;&gt;,&lt;/span&gt;&lt;span style=&quot;text-align: left; background-color: rgb(31, 31, 31); color: rgb(204, 204, 204); font-family: Consolas, &amp;quot;Courier New&amp;quot;, monospace; font-size: 14px;&quot;&gt;Name_Global&lt;/span&gt;&lt;span style=&quot;font-size: 14px;&quot;&gt;,&amp;nbsp;&lt;/span&gt;&lt;span style=&quot;background-color: rgb(31, 31, 31); color: rgb(204, 204, 204); font-family: Consolas, &amp;quot;Courier New&amp;quot;, monospace; font-size: 14px;&quot;&gt;Description_Local,&lt;/span&gt;&lt;span style=&quot;background-color: rgb(31, 31, 31); color: rgb(204, 204, 204); font-family: Consolas, &amp;quot;Courier New&amp;quot;, monospace; font-size: 14px;&quot;&gt;Description_Global&lt;/span&gt;&lt;span style=&quot;background-color: initial; font-size: 14px;&quot;&gt;, Url, Logo&lt;/span&gt;" style="rounded=1;whiteSpace=wrap;html=1;absoluteArcSize=1;arcSize=14;strokeWidth=2;align=center;" parent="1" vertex="1">
                    <mxGeometry x="100" y="400" width="540" height="30" as="geometry"/>
                </mxCell>
                <mxCell id="289" value="&lt;span style=&quot;font-size: 24px;&quot;&gt;PrductLinks&lt;/span&gt;" style="text;html=1;align=center;verticalAlign=middle;resizable=0;points=[];autosize=1;strokeColor=none;fillColor=none;" parent="1" vertex="1">
                    <mxGeometry x="58.75" y="440" width="150" height="40" as="geometry"/>
                </mxCell>
                <mxCell id="290" value="&lt;b style=&quot;font-size: 14px;&quot;&gt;&lt;u&gt;Id&lt;/u&gt;&lt;/b&gt;" style="rounded=1;whiteSpace=wrap;html=1;absoluteArcSize=1;arcSize=14;strokeWidth=2;align=center;fillColor=#0050ef;fontColor=#ffffff;strokeColor=#001DBC;" parent="1" vertex="1">
                    <mxGeometry x="58.75" y="480" width="40" height="30" as="geometry"/>
                </mxCell>
                <mxCell id="291" value="&lt;span style=&quot;font-size: 14px;&quot;&gt;&lt;u&gt;ProductLink&lt;/u&gt;, Status, LastUpdateDate,LastScrappedDate&lt;/span&gt;" style="rounded=1;whiteSpace=wrap;html=1;absoluteArcSize=1;arcSize=14;strokeWidth=2;align=center;" parent="1" vertex="1">
                    <mxGeometry x="240" y="480" width="370" height="30" as="geometry"/>
                </mxCell>
                <mxCell id="293" value="&lt;span style=&quot;font-size: 24px;&quot;&gt;PrductDetials&lt;/span&gt;" style="text;html=1;align=center;verticalAlign=middle;resizable=0;points=[];autosize=1;strokeColor=none;fillColor=none;" parent="1" vertex="1">
                    <mxGeometry x="60" y="520" width="170" height="40" as="geometry"/>
                </mxCell>
                <mxCell id="347" style="edgeStyle=none;html=1;entryX=0;entryY=0.5;entryDx=0;entryDy=0;endArrow=none;endFill=0;startArrow=classic;startFill=1;exitX=0;exitY=0.5;exitDx=0;exitDy=0;strokeWidth=3;" parent="1" source="294" target="290" edge="1">
                    <mxGeometry relative="1" as="geometry">
                        <Array as="points">
                            <mxPoint x="50" y="560"/>
                            <mxPoint x="50" y="530"/>
                            <mxPoint x="50" y="510"/>
                        </Array>
                    </mxGeometry>
                </mxCell>
                <mxCell id="294" value="&lt;b style=&quot;font-size: 14px;&quot;&gt;&lt;u&gt;Id&lt;/u&gt;&lt;/b&gt;" style="rounded=1;whiteSpace=wrap;html=1;absoluteArcSize=1;arcSize=14;strokeWidth=2;align=center;fillColor=#0050ef;fontColor=#ffffff;strokeColor=#001DBC;" parent="1" vertex="1">
                    <mxGeometry x="60" y="560" width="40" height="30" as="geometry"/>
                </mxCell>
                <mxCell id="295" value="&lt;span style=&quot;text-align: left; background-color: rgb(31, 31, 31); color: rgb(204, 204, 204); font-family: Consolas, &amp;quot;Courier New&amp;quot;, monospace; font-size: 14px;&quot;&gt;Name_Local&lt;/span&gt;&lt;span style=&quot;text-align: left; background-color: initial;&quot;&gt;,&lt;/span&gt;&lt;span style=&quot;text-align: left; background-color: rgb(31, 31, 31); color: rgb(204, 204, 204); font-family: Consolas, &amp;quot;Courier New&amp;quot;, monospace; font-size: 14px;&quot;&gt;Name_Global&lt;/span&gt;&lt;span style=&quot;font-size: 14px;&quot;&gt;,&lt;/span&gt;&lt;span style=&quot;background-color: rgb(31, 31, 31); color: rgb(204, 204, 204); font-family: Consolas, &amp;quot;Courier New&amp;quot;, monospace; font-size: 14px;&quot;&gt;Description_Local,&lt;/span&gt;&lt;span style=&quot;background-color: rgb(31, 31, 31); color: rgb(204, 204, 204); font-family: Consolas, &amp;quot;Courier New&amp;quot;, monospace; font-size: 14px;&quot;&gt;Description_Global&lt;/span&gt;&lt;span style=&quot;font-size: 14px;&quot;&gt;,Price,Rating,&lt;/span&gt;&lt;span style=&quot;background-color: rgb(31, 31, 31); color: rgb(204, 204, 204); font-family: Consolas, &amp;quot;Courier New&amp;quot;, monospace; font-size: 14px;&quot;&gt;isAvailable&lt;/span&gt;&lt;span style=&quot;font-size: 14px; background-color: initial;&quot;&gt;,Brand&lt;/span&gt;" style="rounded=1;whiteSpace=wrap;html=1;absoluteArcSize=1;arcSize=14;strokeWidth=2;align=center;" parent="1" vertex="1">
                    <mxGeometry x="100" y="560" width="680" height="30" as="geometry"/>
                </mxCell>
                <mxCell id="296" value="&lt;span style=&quot;font-size: 24px;&quot;&gt;PrductImage&lt;/span&gt;" style="text;html=1;align=center;verticalAlign=middle;resizable=0;points=[];autosize=1;strokeColor=none;fillColor=none;" parent="1" vertex="1">
                    <mxGeometry x="65" y="600" width="160" height="40" as="geometry"/>
                </mxCell>
                <mxCell id="298" value="&lt;span style=&quot;font-size: 14px;&quot;&gt;images&lt;/span&gt;" style="rounded=1;whiteSpace=wrap;html=1;absoluteArcSize=1;arcSize=14;strokeWidth=2;align=center;" parent="1" vertex="1">
                    <mxGeometry x="171.25" y="640" width="70" height="30" as="geometry"/>
                </mxCell>
                <mxCell id="299" value="&lt;span style=&quot;font-size: 14px;&quot;&gt;Prod_Id&lt;/span&gt;" style="rounded=1;html=1;absoluteArcSize=1;arcSize=14;strokeWidth=2;align=center;fillColor=#1ba1e2;fontColor=#ffffff;strokeColor=#006EAF;" parent="1" vertex="1">
                    <mxGeometry x="100" y="640" width="70" height="30" as="geometry"/>
                </mxCell>
                <mxCell id="301" value="&lt;span style=&quot;font-size: 24px;&quot;&gt;PrductSpon&lt;/span&gt;" style="text;html=1;align=center;verticalAlign=middle;resizable=0;points=[];autosize=1;strokeColor=none;fillColor=none;" parent="1" vertex="1">
                    <mxGeometry x="58.75" y="680" width="150" height="40" as="geometry"/>
                </mxCell>
                <mxCell id="302" value="&lt;b style=&quot;font-size: 14px;&quot;&gt;&lt;u&gt;Id&lt;/u&gt;&lt;/b&gt;" style="rounded=1;whiteSpace=wrap;html=1;absoluteArcSize=1;arcSize=14;strokeWidth=2;align=center;fillColor=#0050ef;fontColor=#ffffff;strokeColor=#001DBC;" parent="1" vertex="1">
                    <mxGeometry x="58.75" y="720" width="40" height="30" as="geometry"/>
                </mxCell>
                <mxCell id="303" value="&lt;span style=&quot;font-size: 14px;&quot;&gt;Cost, SDate, Duration&lt;/span&gt;" style="rounded=1;whiteSpace=wrap;html=1;absoluteArcSize=1;arcSize=14;strokeWidth=2;align=center;" parent="1" vertex="1">
                    <mxGeometry x="170" y="720" width="160" height="30" as="geometry"/>
                </mxCell>
                <mxCell id="304" value="&lt;span style=&quot;font-size: 24px;&quot;&gt;Users&lt;/span&gt;" style="text;html=1;align=center;verticalAlign=middle;resizable=0;points=[];autosize=1;strokeColor=none;fillColor=none;" parent="1" vertex="1">
                    <mxGeometry x="60" y="760" width="90" height="40" as="geometry"/>
                </mxCell>
                <mxCell id="305" value="&lt;b style=&quot;font-size: 14px;&quot;&gt;&lt;u&gt;Id&lt;/u&gt;&lt;/b&gt;" style="rounded=1;whiteSpace=wrap;html=1;absoluteArcSize=1;arcSize=14;strokeWidth=2;align=center;fillColor=#0050ef;fontColor=#ffffff;strokeColor=#001DBC;" parent="1" vertex="1">
                    <mxGeometry x="58.75" y="800" width="40" height="30" as="geometry"/>
                </mxCell>
                <mxCell id="306" value="&lt;span style=&quot;font-size: 14px;&quot;&gt;FName,LName,Email, Password,Gender,&lt;/span&gt;&lt;span style=&quot;font-size: 14px;&quot;&gt;Country,PhoneCode,&lt;/span&gt;&lt;span style=&quot;font-size: 14px;&quot;&gt;PhoneNumber,Address,BirthDate,JoinDate,Image&lt;/span&gt;" style="rounded=1;whiteSpace=wrap;html=1;absoluteArcSize=1;arcSize=14;strokeWidth=2;align=center;" parent="1" vertex="1">
                    <mxGeometry x="100" y="800" width="720" height="30" as="geometry"/>
                </mxCell>
                <mxCell id="307" value="&lt;span style=&quot;font-size: 24px;&quot;&gt;SearchValue&lt;/span&gt;" style="text;html=1;align=center;verticalAlign=middle;resizable=0;points=[];autosize=1;strokeColor=none;fillColor=none;" parent="1" vertex="1">
                    <mxGeometry x="55" y="840" width="160" height="40" as="geometry"/>
                </mxCell>
                <mxCell id="309" value="&lt;span style=&quot;font-size: 14px;&quot;&gt;Users_Id&lt;/span&gt;" style="rounded=1;html=1;absoluteArcSize=1;arcSize=14;strokeWidth=2;align=center;fillColor=#1ba1e2;fontColor=#ffffff;strokeColor=#006EAF;" parent="1" vertex="1">
                    <mxGeometry x="100" y="880" width="70" height="30" as="geometry"/>
                </mxCell>
                <mxCell id="308" value="&lt;span style=&quot;font-size: 14px;&quot;&gt;SearchValue&lt;/span&gt;" style="rounded=1;whiteSpace=wrap;html=1;absoluteArcSize=1;arcSize=14;strokeWidth=2;align=center;" parent="1" vertex="1">
                    <mxGeometry x="170" y="880" width="100" height="30" as="geometry"/>
                </mxCell>
                <mxCell id="310" value="&lt;span style=&quot;font-size: 24px;&quot;&gt;UserFavProd&lt;/span&gt;" style="text;html=1;align=center;verticalAlign=middle;resizable=0;points=[];autosize=1;strokeColor=none;fillColor=none;" parent="1" vertex="1">
                    <mxGeometry x="60" y="920" width="160" height="40" as="geometry"/>
                </mxCell>
                <mxCell id="313" value="&lt;span style=&quot;font-size: 14px;&quot;&gt;&lt;u&gt;Users_Id&lt;/u&gt;&lt;/span&gt;" style="rounded=1;html=1;absoluteArcSize=1;arcSize=14;strokeWidth=2;align=center;fillColor=#1ba1e2;fontColor=#ffffff;strokeColor=#006EAF;" parent="1" vertex="1">
                    <mxGeometry x="58.75" y="960" width="70" height="30" as="geometry"/>
                </mxCell>
                <mxCell id="314" value="&lt;span style=&quot;font-size: 14px;&quot;&gt;&lt;u&gt;Prod_Id&lt;/u&gt;&lt;/span&gt;" style="rounded=1;html=1;absoluteArcSize=1;arcSize=14;strokeWidth=2;align=center;fillColor=#1ba1e2;fontColor=#ffffff;strokeColor=#006EAF;" parent="1" vertex="1">
                    <mxGeometry x="128.75" y="960" width="70" height="30" as="geometry"/>
                </mxCell>
                <mxCell id="315" value="&lt;span style=&quot;font-size: 24px;&quot;&gt;UserAlertProd&lt;/span&gt;" style="text;html=1;align=center;verticalAlign=middle;resizable=0;points=[];autosize=1;strokeColor=none;fillColor=none;" parent="1" vertex="1">
                    <mxGeometry x="216.25" y="920" width="170" height="40" as="geometry"/>
                </mxCell>
                <mxCell id="316" value="&lt;span style=&quot;font-size: 14px;&quot;&gt;&lt;u&gt;Users_Id&lt;/u&gt;&lt;/span&gt;" style="rounded=1;html=1;absoluteArcSize=1;arcSize=14;strokeWidth=2;align=center;fillColor=#1ba1e2;fontColor=#ffffff;strokeColor=#006EAF;" parent="1" vertex="1">
                    <mxGeometry x="220" y="960" width="70" height="30" as="geometry"/>
                </mxCell>
                <mxCell id="317" value="&lt;span style=&quot;font-size: 14px;&quot;&gt;&lt;u&gt;Prod_Id&lt;/u&gt;&lt;/span&gt;" style="rounded=1;html=1;absoluteArcSize=1;arcSize=14;strokeWidth=2;align=center;fillColor=#1ba1e2;fontColor=#ffffff;strokeColor=#006EAF;" parent="1" vertex="1">
                    <mxGeometry x="290" y="960" width="70" height="30" as="geometry"/>
                </mxCell>
                <mxCell id="318" value="&lt;span style=&quot;font-size: 24px;&quot;&gt;UserHistProd&lt;/span&gt;" style="text;html=1;align=center;verticalAlign=middle;resizable=0;points=[];autosize=1;strokeColor=none;fillColor=none;" parent="1" vertex="1">
                    <mxGeometry x="392.43" y="920" width="170" height="40" as="geometry"/>
                </mxCell>
                <mxCell id="319" value="&lt;span style=&quot;font-size: 14px;&quot;&gt;&lt;u&gt;Users_Id&lt;/u&gt;&lt;/span&gt;" style="rounded=1;html=1;absoluteArcSize=1;arcSize=14;strokeWidth=2;align=center;fillColor=#1ba1e2;fontColor=#ffffff;strokeColor=#006EAF;" parent="1" vertex="1">
                    <mxGeometry x="396.18" y="960" width="70" height="30" as="geometry"/>
                </mxCell>
                <mxCell id="320" value="&lt;span style=&quot;font-size: 14px;&quot;&gt;Prod_Id&lt;/span&gt;" style="rounded=1;html=1;absoluteArcSize=1;arcSize=14;strokeWidth=2;align=center;fillColor=#1ba1e2;fontColor=#ffffff;strokeColor=#006EAF;" parent="1" vertex="1">
                    <mxGeometry x="466.18" y="960" width="70" height="30" as="geometry"/>
                </mxCell>
                <mxCell id="321" value="&lt;span style=&quot;font-size: 14px;&quot;&gt;Cat_Id&lt;/span&gt;" style="rounded=1;html=1;absoluteArcSize=1;arcSize=14;strokeWidth=2;align=center;fillColor=#1ba1e2;fontColor=#ffffff;strokeColor=#006EAF;" parent="1" vertex="1">
                    <mxGeometry x="99.93" y="160" width="70" height="30" as="geometry"/>
                </mxCell>
                <mxCell id="322" value="&lt;span style=&quot;text-align: left; background-color: rgb(31, 31, 31); color: rgb(204, 204, 204); font-family: Consolas, &amp;quot;Courier New&amp;quot;, monospace; font-size: 14px;&quot;&gt;Name_Local&lt;/span&gt;&lt;span style=&quot;text-align: left; background-color: initial;&quot;&gt;,&lt;/span&gt;&lt;span style=&quot;text-align: left; background-color: rgb(31, 31, 31); color: rgb(204, 204, 204); font-family: Consolas, &amp;quot;Courier New&amp;quot;, monospace; font-size: 14px;&quot;&gt;Name_Global&lt;/span&gt;" style="rounded=1;whiteSpace=wrap;html=1;absoluteArcSize=1;arcSize=14;strokeWidth=2;align=center;" parent="1" vertex="1">
                    <mxGeometry x="171.25" y="160" width="190" height="30" as="geometry"/>
                </mxCell>
                <mxCell id="324" style="edgeStyle=orthogonalEdgeStyle;html=1;entryX=0;entryY=0.5;entryDx=0;entryDy=0;fontSize=14;align=center;exitX=0.5;exitY=1;exitDx=0;exitDy=0;" parent="1" source="321" target="269" edge="1">
                    <mxGeometry relative="1" as="geometry">
                        <mxPoint x="114.93000000000018" y="190" as="sourcePoint"/>
                        <mxPoint x="39.93000000000009" y="97" as="targetPoint"/>
                        <Array as="points">
                            <mxPoint x="135" y="200"/>
                            <mxPoint x="40" y="200"/>
                            <mxPoint x="40" y="95"/>
                        </Array>
                    </mxGeometry>
                </mxCell>
                <mxCell id="325" value="&lt;span style=&quot;font-size: 14px;&quot;&gt;SubCat_Id&lt;/span&gt;" style="rounded=1;html=1;absoluteArcSize=1;arcSize=14;strokeWidth=2;align=center;fillColor=#1ba1e2;fontColor=#ffffff;strokeColor=#006EAF;" parent="1" vertex="1">
                    <mxGeometry x="100" y="240" width="90" height="30" as="geometry"/>
                </mxCell>
                <mxCell id="326" style="edgeStyle=orthogonalEdgeStyle;html=1;entryX=0;entryY=0.5;entryDx=0;entryDy=0;fontSize=14;align=center;exitX=0.5;exitY=1;exitDx=0;exitDy=0;" parent="1" source="325" target="269" edge="1">
                    <mxGeometry relative="1" as="geometry">
                        <mxPoint x="132.50000000000006" y="270" as="sourcePoint"/>
                        <mxPoint x="55.07" y="175" as="targetPoint"/>
                        <Array as="points">
                            <mxPoint x="145" y="280"/>
                            <mxPoint x="30" y="280"/>
                            <mxPoint x="30" y="95"/>
                        </Array>
                    </mxGeometry>
                </mxCell>
                <mxCell id="327" value="&lt;span style=&quot;font-size: 14px;&quot;&gt;Domain_Id&lt;/span&gt;" style="rounded=1;html=1;absoluteArcSize=1;arcSize=14;strokeWidth=2;align=center;fillColor=#1ba1e2;fontColor=#ffffff;strokeColor=#006EAF;" parent="1" vertex="1">
                    <mxGeometry x="98.75" y="480" width="70" height="30" as="geometry"/>
                </mxCell>
                <mxCell id="328" style="edgeStyle=orthogonalEdgeStyle;html=1;entryX=0;entryY=0.5;entryDx=0;entryDy=0;fontSize=14;align=center;exitX=0.5;exitY=1;exitDx=0;exitDy=0;" parent="1" source="327" target="287" edge="1">
                    <mxGeometry relative="1" as="geometry">
                        <mxPoint x="129.88" y="525" as="sourcePoint"/>
                        <mxPoint x="42.379999999999995" y="350" as="targetPoint"/>
                        <Array as="points">
                            <mxPoint x="134" y="520"/>
                            <mxPoint x="40" y="520"/>
                            <mxPoint x="40" y="415"/>
                        </Array>
                    </mxGeometry>
                </mxCell>
                <mxCell id="329" style="edgeStyle=orthogonalEdgeStyle;html=1;entryX=0;entryY=0.5;entryDx=0;entryDy=0;fontSize=14;align=center;exitX=0.5;exitY=1;exitDx=0;exitDy=0;" parent="1" source="299" target="294" edge="1">
                    <mxGeometry relative="1" as="geometry">
                        <mxPoint x="125.63" y="670" as="sourcePoint"/>
                        <mxPoint x="49.38000000000006" y="575" as="targetPoint"/>
                        <Array as="points">
                            <mxPoint x="135" y="680"/>
                            <mxPoint x="40" y="680"/>
                            <mxPoint x="40" y="575"/>
                        </Array>
                    </mxGeometry>
                </mxCell>
                <mxCell id="331" style="edgeStyle=orthogonalEdgeStyle;html=1;entryX=0;entryY=0.5;entryDx=0;entryDy=0;fontSize=14;align=center;exitX=0.5;exitY=1;exitDx=0;exitDy=0;" parent="1" source="332" target="294" edge="1">
                    <mxGeometry relative="1" as="geometry">
                        <mxPoint x="132.43" y="755" as="sourcePoint"/>
                        <mxPoint x="98.68" y="660" as="targetPoint"/>
                        <Array as="points">
                            <mxPoint x="135" y="765"/>
                            <mxPoint x="36" y="765"/>
                            <mxPoint x="36" y="575"/>
                        </Array>
                    </mxGeometry>
                </mxCell>
                <mxCell id="332" value="&lt;span style=&quot;font-size: 14px;&quot;&gt;Prod_Id&lt;/span&gt;" style="rounded=1;html=1;absoluteArcSize=1;arcSize=14;strokeWidth=2;align=center;fillColor=#1ba1e2;fontColor=#ffffff;strokeColor=#006EAF;" parent="1" vertex="1">
                    <mxGeometry x="99.93" y="720" width="70" height="30" as="geometry"/>
                </mxCell>
                <mxCell id="333" style="edgeStyle=orthogonalEdgeStyle;html=1;fontSize=14;align=center;exitX=0.5;exitY=1;exitDx=0;exitDy=0;entryX=0;entryY=0.5;entryDx=0;entryDy=0;" parent="1" source="309" target="305" edge="1">
                    <mxGeometry relative="1" as="geometry">
                        <mxPoint x="132.50000000000006" y="904.96" as="sourcePoint"/>
                        <mxPoint x="40" y="810" as="targetPoint"/>
                        <Array as="points">
                            <mxPoint x="135" y="920"/>
                            <mxPoint x="40" y="920"/>
                            <mxPoint x="40" y="815"/>
                        </Array>
                    </mxGeometry>
                </mxCell>
                <mxCell id="334" style="edgeStyle=orthogonalEdgeStyle;html=1;fontSize=14;align=center;exitX=0.5;exitY=1;exitDx=0;exitDy=0;entryX=0;entryY=0.5;entryDx=0;entryDy=0;" parent="1" source="313" target="305" edge="1">
                    <mxGeometry relative="1" as="geometry">
                        <mxPoint x="97.49" y="1005" as="sourcePoint"/>
                        <mxPoint x="62.49" y="910" as="targetPoint"/>
                        <Array as="points">
                            <mxPoint x="94" y="1000"/>
                            <mxPoint x="30" y="1000"/>
                            <mxPoint x="30" y="815"/>
                        </Array>
                    </mxGeometry>
                </mxCell>
                <mxCell id="335" style="edgeStyle=orthogonalEdgeStyle;html=1;fontSize=14;align=center;exitX=0.5;exitY=1;exitDx=0;exitDy=0;entryX=0;entryY=0.5;entryDx=0;entryDy=0;" parent="1" source="319" target="305" edge="1">
                    <mxGeometry relative="1" as="geometry">
                        <mxPoint x="103.75" y="1000" as="sourcePoint"/>
                        <mxPoint x="68.75" y="905" as="targetPoint"/>
                        <Array as="points">
                            <mxPoint x="431" y="1000"/>
                            <mxPoint x="30" y="1000"/>
                            <mxPoint x="30" y="815"/>
                        </Array>
                    </mxGeometry>
                </mxCell>
                <mxCell id="336" style="edgeStyle=orthogonalEdgeStyle;html=1;fontSize=14;align=center;exitX=0.5;exitY=1;exitDx=0;exitDy=0;" parent="1" source="316" target="305" edge="1">
                    <mxGeometry relative="1" as="geometry">
                        <mxPoint x="89.75" y="995" as="sourcePoint"/>
                        <mxPoint x="54.75" y="900" as="targetPoint"/>
                        <Array as="points">
                            <mxPoint x="255" y="1000"/>
                            <mxPoint x="30" y="1000"/>
                            <mxPoint x="30" y="815"/>
                        </Array>
                    </mxGeometry>
                </mxCell>
                <mxCell id="337" style="edgeStyle=orthogonalEdgeStyle;html=1;fontSize=14;align=center;exitX=0.5;exitY=1;exitDx=0;exitDy=0;entryX=0;entryY=0.5;entryDx=0;entryDy=0;" parent="1" source="314" target="279" edge="1">
                    <mxGeometry relative="1" as="geometry">
                        <mxPoint x="168.68000000000006" y="1000" as="sourcePoint"/>
                        <mxPoint x="133.68000000000006" y="905" as="targetPoint"/>
                        <Array as="points">
                            <mxPoint x="164" y="1010"/>
                            <mxPoint x="20" y="1010"/>
                            <mxPoint x="20" y="255"/>
                        </Array>
                    </mxGeometry>
                </mxCell>
                <mxCell id="338" style="edgeStyle=orthogonalEdgeStyle;html=1;fontSize=14;align=center;exitX=0.5;exitY=1;exitDx=0;exitDy=0;entryX=0;entryY=0.5;entryDx=0;entryDy=0;" parent="1" source="320" target="279" edge="1">
                    <mxGeometry relative="1" as="geometry">
                        <mxPoint x="506.11000000000007" y="1000" as="sourcePoint"/>
                        <mxPoint x="133.68000000000006" y="905" as="targetPoint"/>
                        <Array as="points">
                            <mxPoint x="501" y="1010"/>
                            <mxPoint x="20" y="1010"/>
                            <mxPoint x="20" y="255"/>
                        </Array>
                    </mxGeometry>
                </mxCell>
                <mxCell id="339" style="edgeStyle=orthogonalEdgeStyle;html=1;fontSize=14;align=center;exitX=0.5;exitY=1;exitDx=0;exitDy=0;entryX=0;entryY=0.5;entryDx=0;entryDy=0;" parent="1" source="317" target="279" edge="1">
                    <mxGeometry relative="1" as="geometry">
                        <mxPoint x="329.93" y="1000" as="sourcePoint"/>
                        <mxPoint x="133.68000000000006" y="905" as="targetPoint"/>
                        <Array as="points">
                            <mxPoint x="325" y="1010"/>
                            <mxPoint x="20" y="1010"/>
                            <mxPoint x="20" y="255"/>
                        </Array>
                    </mxGeometry>
                </mxCell>
                <mxCell id="343" value="&lt;span style=&quot;font-size: 14px;&quot;&gt;Prod_Id&lt;/span&gt;" style="rounded=1;html=1;absoluteArcSize=1;arcSize=14;strokeWidth=2;align=center;fillColor=#1ba1e2;fontColor=#ffffff;strokeColor=#006EAF;" parent="1" vertex="1">
                    <mxGeometry x="170" y="480" width="70" height="30" as="geometry"/>
                </mxCell>
                <mxCell id="344" style="edgeStyle=orthogonalEdgeStyle;html=1;entryX=0;entryY=0.5;entryDx=0;entryDy=0;fontSize=14;align=center;exitX=0.5;exitY=1;exitDx=0;exitDy=0;" parent="1" source="343" target="279" edge="1">
                    <mxGeometry relative="1" as="geometry">
                        <mxPoint x="143.75" y="520" as="sourcePoint"/>
                        <mxPoint x="67.5" y="425" as="targetPoint"/>
                        <Array as="points">
                            <mxPoint x="205" y="525"/>
                            <mxPoint x="34" y="525"/>
                            <mxPoint x="34" y="255"/>
                        </Array>
                    </mxGeometry>
                </mxCell>
                <mxCell id="345" style="edgeStyle=orthogonalEdgeStyle;html=1;entryX=0;entryY=0.5;entryDx=0;entryDy=0;fontSize=14;align=center;exitX=0.5;exitY=1;exitDx=0;exitDy=0;" parent="1" source="285" target="279" edge="1">
                    <mxGeometry relative="1" as="geometry">
                        <mxPoint x="215" y="520.0000000000001" as="sourcePoint"/>
                        <mxPoint x="70" y="265" as="targetPoint"/>
                        <Array as="points">
                            <mxPoint x="135" y="360"/>
                            <mxPoint x="40" y="360"/>
                            <mxPoint x="40" y="255"/>
                        </Array>
                    </mxGeometry>
                </mxCell>
                <mxCell id="354" value="&lt;b style=&quot;font-size: 14px;&quot;&gt;&lt;u&gt;Id&lt;/u&gt;&lt;/b&gt;" style="rounded=1;whiteSpace=wrap;html=1;absoluteArcSize=1;arcSize=14;strokeWidth=2;align=center;fillColor=#0050ef;fontColor=#ffffff;strokeColor=#001DBC;" vertex="1" parent="1">
                    <mxGeometry x="60" y="320" width="40" height="30" as="geometry"/>
                </mxCell>
                <mxCell id="355" value="&lt;b style=&quot;font-size: 14px;&quot;&gt;&lt;u&gt;Id&lt;/u&gt;&lt;/b&gt;" style="rounded=1;whiteSpace=wrap;html=1;absoluteArcSize=1;arcSize=14;strokeWidth=2;align=center;fillColor=#0050ef;fontColor=#ffffff;strokeColor=#001DBC;" vertex="1" parent="1">
                    <mxGeometry x="58.75" y="640" width="40" height="30" as="geometry"/>
                </mxCell>
                <mxCell id="356" value="&lt;b style=&quot;font-size: 14px;&quot;&gt;&lt;u&gt;Id&lt;/u&gt;&lt;/b&gt;" style="rounded=1;whiteSpace=wrap;html=1;absoluteArcSize=1;arcSize=14;strokeWidth=2;align=center;fillColor=#0050ef;fontColor=#ffffff;strokeColor=#001DBC;" vertex="1" parent="1">
                    <mxGeometry x="60" y="880" width="40" height="30" as="geometry"/>
                </mxCell>
            </root>
        </mxGraphModel>
    </diagram>
</mxfile>